<?xml version="1.0" standalone="no"?>
<!DOCTYPE svg PUBLIC "-//W3C//DTD SVG 20010904//EN"
 "http://www.w3.org/TR/2001/REC-SVG-20010904/DTD/svg10.dtd">
<svg version="1.0" xmlns="http://www.w3.org/2000/svg"
 width="800.000000pt" height="800.000000pt" viewBox="0 0 800.000000 800.000000"
 preserveAspectRatio="xMidYMid meet">

<g transform="translate(0.000000,800.000000) scale(0.100000,-0.100000)"
fill="#000000" stroke="none">
<path d="M3780 7954 c-911 -83 -1408 -595 -1546 -1594 -24 -180 -30 -634 -10
-790 71 -541 291 -994 647 -1335 135 -129 262 -218 424 -300 202 -101 358
-145 584 -166 194 -17 417 10 617 75 115 38 324 146 434 224 368 261 656 693
781 1166 65 249 74 331 74 671 0 244 -4 339 -18 445 -128 946 -577 1460 -1387
1585 -101 16 -498 28 -600 19z"/>
<path d="M1840 3291 c-650 -338 -732 -383 -788 -436 -38 -35 -75 -81 -92 -114
-76 -151 -933 -2102 -947 -2155 -29 -112 0 -257 70 -354 44 -62 138 -137 207
-165 l55 -22 3630 -3 c3357 -3 3635 -2 3693 14 230 61 377 309 317 536 -13 50
-875 2008 -945 2149 -17 33 -54 79 -92 115 -58 53 -134 95 -784 432 -395 206
-734 376 -752 379 -28 5 -45 -3 -120 -54 -253 -175 -474 -278 -747 -348 -191
-49 -341 -68 -545 -68 -471 0 -892 136 -1295 417 -56 39 -88 56 -110 55 -19 0
-292 -137 -755 -378z"/>
</g>
</svg>
